<?xml version="1.0" encoding="UTF-8" standalone="no"?>
<!DOCTYPE svg PUBLIC "-//W3C//DTD SVG 1.1//EN"
 "http://www.w3.org/Graphics/SVG/1.1/DTD/svg11.dtd">
<!-- Generated by graphviz version 2.43.0 (0)
 -->
<!-- Title: MinMaxHeap Pages: 1 -->
<svg width="323pt" height="476pt"
 viewBox="0.00 0.00 322.55 476.00" xmlns="http://www.w3.org/2000/svg" xmlns:xlink="http://www.w3.org/1999/xlink">
<g id="graph0" class="graph" transform="scale(1 1) rotate(0) translate(4 472)">
<title>MinMaxHeap</title>
<polygon fill="white" stroke="transparent" points="-4,4 -4,-472 318.55,-472 318.55,4 -4,4"/>
<!-- 2 -->
<g id="node1" class="node">
<title>2</title>
<ellipse fill="none" stroke="black" cx="68.55" cy="-450" rx="27" ry="18"/>
<text text-anchor="middle" x="68.55" y="-446.3" font-family="Arial" font-size="14.00">2</text>
</g>
<!-- ........ -->
<g id="node2" class="node">
<title>........</title>
<ellipse fill="none" stroke="black" cx="30.55" cy="-378" rx="30.59" ry="18"/>
<text text-anchor="middle" x="30.55" y="-374.3" font-family="Arial" font-size="14.00">........</text>
</g>
<!-- 2&#45;&gt;........ -->
<g id="edge1" class="edge">
<title>2&#45;&gt;........</title>
<path fill="none" stroke="black" d="M59.73,-432.76C55.2,-424.4 49.56,-414.02 44.45,-404.61"/>
<polygon fill="black" stroke="black" points="47.42,-402.75 39.58,-395.63 41.27,-406.09 47.42,-402.75"/>
</g>
<!-- 8 -->
<g id="node3" class="node">
<title>8</title>
<ellipse fill="none" stroke="black" cx="106.55" cy="-378" rx="27" ry="18"/>
<text text-anchor="middle" x="106.55" y="-374.3" font-family="Arial" font-size="14.00">8</text>
</g>
<!-- 2&#45;&gt;8 -->
<g id="edge2" class="edge">
<title>2&#45;&gt;8</title>
<path fill="none" stroke="black" d="M77.36,-432.76C81.97,-424.28 87.7,-413.71 92.87,-404.2"/>
<polygon fill="black" stroke="black" points="96.09,-405.61 97.78,-395.15 89.93,-402.27 96.09,-405.61"/>
</g>
<!-- ....... -->
<g id="node4" class="node">
<title>.......</title>
<ellipse fill="none" stroke="black" cx="70.55" cy="-306" rx="27.9" ry="18"/>
<text text-anchor="middle" x="70.55" y="-302.3" font-family="Arial" font-size="14.00">.......</text>
</g>
<!-- 8&#45;&gt;....... -->
<g id="edge3" class="edge">
<title>8&#45;&gt;.......</title>
<path fill="none" stroke="black" d="M98.2,-360.76C93.9,-352.4 88.56,-342.02 83.72,-332.61"/>
<polygon fill="black" stroke="black" points="86.79,-330.93 79.1,-323.63 80.56,-334.13 86.79,-330.93"/>
</g>
<!-- 3 -->
<g id="node5" class="node">
<title>3</title>
<ellipse fill="none" stroke="black" cx="143.55" cy="-306" rx="27" ry="18"/>
<text text-anchor="middle" x="143.55" y="-302.3" font-family="Arial" font-size="14.00">3</text>
</g>
<!-- 8&#45;&gt;3 -->
<g id="edge4" class="edge">
<title>8&#45;&gt;3</title>
<path fill="none" stroke="black" d="M115.13,-360.76C119.61,-352.28 125.2,-341.71 130.23,-332.2"/>
<polygon fill="black" stroke="black" points="133.43,-333.62 135.01,-323.15 127.24,-330.35 133.43,-333.62"/>
</g>
<!-- ...... -->
<g id="node6" class="node">
<title>......</title>
<ellipse fill="none" stroke="black" cx="107.55" cy="-234" rx="27" ry="18"/>
<text text-anchor="middle" x="107.55" y="-230.3" font-family="Arial" font-size="14.00">......</text>
</g>
<!-- 3&#45;&gt;...... -->
<g id="edge5" class="edge">
<title>3&#45;&gt;......</title>
<path fill="none" stroke="black" d="M135.2,-288.76C130.84,-280.28 125.4,-269.71 120.51,-260.2"/>
<polygon fill="black" stroke="black" points="123.54,-258.44 115.85,-251.15 117.31,-261.64 123.54,-258.44"/>
</g>
<!-- 7 -->
<g id="node7" class="node">
<title>7</title>
<ellipse fill="none" stroke="black" cx="179.55" cy="-234" rx="27" ry="18"/>
<text text-anchor="middle" x="179.55" y="-230.3" font-family="Arial" font-size="14.00">7</text>
</g>
<!-- 3&#45;&gt;7 -->
<g id="edge6" class="edge">
<title>3&#45;&gt;7</title>
<path fill="none" stroke="black" d="M151.9,-288.76C156.26,-280.28 161.69,-269.71 166.59,-260.2"/>
<polygon fill="black" stroke="black" points="169.78,-261.64 171.24,-251.15 163.56,-258.44 169.78,-261.64"/>
</g>
<!-- ..... -->
<g id="node8" class="node">
<title>.....</title>
<ellipse fill="none" stroke="black" cx="143.55" cy="-162" rx="27" ry="18"/>
<text text-anchor="middle" x="143.55" y="-158.3" font-family="Arial" font-size="14.00">.....</text>
</g>
<!-- 7&#45;&gt;..... -->
<g id="edge7" class="edge">
<title>7&#45;&gt;.....</title>
<path fill="none" stroke="black" d="M171.2,-216.76C166.84,-208.28 161.4,-197.71 156.51,-188.2"/>
<polygon fill="black" stroke="black" points="159.54,-186.44 151.85,-179.15 153.31,-189.64 159.54,-186.44"/>
</g>
<!-- 4 -->
<g id="node9" class="node">
<title>4</title>
<ellipse fill="none" stroke="black" cx="215.55" cy="-162" rx="27" ry="18"/>
<text text-anchor="middle" x="215.55" y="-158.3" font-family="Arial" font-size="14.00">4</text>
</g>
<!-- 7&#45;&gt;4 -->
<g id="edge8" class="edge">
<title>7&#45;&gt;4</title>
<path fill="none" stroke="black" d="M187.9,-216.76C192.26,-208.28 197.69,-197.71 202.59,-188.2"/>
<polygon fill="black" stroke="black" points="205.78,-189.64 207.24,-179.15 199.56,-186.44 205.78,-189.64"/>
</g>
<!-- .... -->
<g id="node10" class="node">
<title>....</title>
<ellipse fill="none" stroke="black" cx="179.55" cy="-90" rx="27" ry="18"/>
<text text-anchor="middle" x="179.55" y="-86.3" font-family="Arial" font-size="14.00">....</text>
</g>
<!-- 4&#45;&gt;.... -->
<g id="edge9" class="edge">
<title>4&#45;&gt;....</title>
<path fill="none" stroke="black" d="M207.2,-144.76C202.84,-136.28 197.4,-125.71 192.51,-116.2"/>
<polygon fill="black" stroke="black" points="195.54,-114.44 187.85,-107.15 189.31,-117.64 195.54,-114.44"/>
</g>
<!-- 5 -->
<g id="node11" class="node">
<title>5</title>
<ellipse fill="none" stroke="black" cx="251.55" cy="-90" rx="27" ry="18"/>
<text text-anchor="middle" x="251.55" y="-86.3" font-family="Arial" font-size="14.00">5</text>
</g>
<!-- 4&#45;&gt;5 -->
<g id="edge10" class="edge">
<title>4&#45;&gt;5</title>
<path fill="none" stroke="black" d="M223.9,-144.76C228.26,-136.28 233.69,-125.71 238.59,-116.2"/>
<polygon fill="black" stroke="black" points="241.78,-117.64 243.24,-107.15 235.56,-114.44 241.78,-117.64"/>
</g>
<!-- ... -->
<g id="node12" class="node">
<title>...</title>
<ellipse fill="none" stroke="black" cx="215.55" cy="-18" rx="27" ry="18"/>
<text text-anchor="middle" x="215.55" y="-14.3" font-family="Arial" font-size="14.00">...</text>
</g>
<!-- 5&#45;&gt;... -->
<g id="edge11" class="edge">
<title>5&#45;&gt;...</title>
<path fill="none" stroke="black" d="M243.2,-72.76C238.84,-64.28 233.4,-53.71 228.51,-44.2"/>
<polygon fill="black" stroke="black" points="231.54,-42.44 223.85,-35.15 225.31,-45.64 231.54,-42.44"/>
</g>
<!-- 6 -->
<g id="node13" class="node">
<title>6</title>
<ellipse fill="none" stroke="red" cx="287.55" cy="-18" rx="27" ry="18"/>
<text text-anchor="middle" x="287.55" y="-14.3" font-family="Arial" font-size="14.00">6</text>
</g>
<!-- 5&#45;&gt;6 -->
<g id="edge12" class="edge">
<title>5&#45;&gt;6</title>
<path fill="none" stroke="black" d="M259.9,-72.76C264.26,-64.28 269.69,-53.71 274.59,-44.2"/>
<polygon fill="black" stroke="black" points="277.78,-45.64 279.24,-35.15 271.56,-42.44 277.78,-45.64"/>
</g>
</g>
</svg>
