<?xml version="1.0" encoding="UTF-8" standalone="no"?>
<!DOCTYPE svg PUBLIC "-//W3C//DTD SVG 1.1//EN"
 "http://www.w3.org/Graphics/SVG/1.1/DTD/svg11.dtd">
<!-- Generated by graphviz version 2.43.0 (0)
 -->
<!-- Title: MinMaxHeap Pages: 1 -->
<svg width="407pt" height="692pt"
 viewBox="0.00 0.00 407.10 692.00" xmlns="http://www.w3.org/2000/svg" xmlns:xlink="http://www.w3.org/1999/xlink">
<g id="graph0" class="graph" transform="scale(1 1) rotate(0) translate(4 688)">
<title>MinMaxHeap</title>
<polygon fill="white" stroke="transparent" points="-4,4 -4,-688 403.1,-688 403.1,4 -4,4"/>
<!-- 3 -->
<g id="node1" class="node">
<title>3</title>
<ellipse fill="none" stroke="red" cx="372.1" cy="-18" rx="27" ry="18"/>
<text text-anchor="middle" x="372.1" y="-14.3" font-family="Arial" font-size="14.00">3</text>
</g>
<!-- 1 -->
<g id="node2" class="node">
<title>1</title>
<ellipse fill="none" stroke="black" cx="75.1" cy="-666" rx="27" ry="18"/>
<text text-anchor="middle" x="75.1" y="-662.3" font-family="Arial" font-size="14.00">1</text>
</g>
<!-- .......... -->
<g id="node3" class="node">
<title>..........</title>
<ellipse fill="none" stroke="black" cx="35.1" cy="-594" rx="35.19" ry="18"/>
<text text-anchor="middle" x="35.1" y="-590.3" font-family="Arial" font-size="14.00">..........</text>
</g>
<!-- 1&#45;&gt;.......... -->
<g id="edge1" class="edge">
<title>1&#45;&gt;..........</title>
<path fill="none" stroke="black" d="M65.82,-648.76C61.04,-640.4 55.11,-630.02 49.73,-620.61"/>
<polygon fill="black" stroke="black" points="52.6,-618.58 44.6,-611.63 46.52,-622.05 52.6,-618.58"/>
</g>
<!-- 10 -->
<g id="node4" class="node">
<title>10</title>
<ellipse fill="none" stroke="black" cx="115.1" cy="-594" rx="27" ry="18"/>
<text text-anchor="middle" x="115.1" y="-590.3" font-family="Arial" font-size="14.00">10</text>
</g>
<!-- 1&#45;&gt;10 -->
<g id="edge2" class="edge">
<title>1&#45;&gt;10</title>
<path fill="none" stroke="black" d="M84.37,-648.76C89.27,-640.19 95.39,-629.49 100.87,-619.9"/>
<polygon fill="black" stroke="black" points="103.95,-621.57 105.87,-611.15 97.87,-618.09 103.95,-621.57"/>
</g>
<!-- ......... -->
<g id="node5" class="node">
<title>.........</title>
<ellipse fill="none" stroke="black" cx="77.1" cy="-522" rx="32.49" ry="18"/>
<text text-anchor="middle" x="77.1" y="-518.3" font-family="Arial" font-size="14.00">.........</text>
</g>
<!-- 10&#45;&gt;......... -->
<g id="edge3" class="edge">
<title>10&#45;&gt;.........</title>
<path fill="none" stroke="black" d="M106.28,-576.76C101.74,-568.4 96.11,-558.02 91,-548.61"/>
<polygon fill="black" stroke="black" points="93.97,-546.75 86.13,-539.63 87.82,-550.09 93.97,-546.75"/>
</g>
<!-- 2 -->
<g id="node6" class="node">
<title>2</title>
<ellipse fill="none" stroke="black" cx="154.1" cy="-522" rx="27" ry="18"/>
<text text-anchor="middle" x="154.1" y="-518.3" font-family="Arial" font-size="14.00">2</text>
</g>
<!-- 10&#45;&gt;2 -->
<g id="edge4" class="edge">
<title>10&#45;&gt;2</title>
<path fill="none" stroke="black" d="M124.14,-576.76C128.92,-568.19 134.88,-557.49 140.22,-547.9"/>
<polygon fill="black" stroke="black" points="143.29,-549.59 145.1,-539.15 137.18,-546.18 143.29,-549.59"/>
</g>
<!-- ........ -->
<g id="node7" class="node">
<title>........</title>
<ellipse fill="none" stroke="black" cx="116.1" cy="-450" rx="30.59" ry="18"/>
<text text-anchor="middle" x="116.1" y="-446.3" font-family="Arial" font-size="14.00">........</text>
</g>
<!-- 2&#45;&gt;........ -->
<g id="edge5" class="edge">
<title>2&#45;&gt;........</title>
<path fill="none" stroke="black" d="M145.28,-504.76C140.74,-496.4 135.11,-486.02 130,-476.61"/>
<polygon fill="black" stroke="black" points="132.97,-474.75 125.13,-467.63 126.82,-478.09 132.97,-474.75"/>
</g>
<!-- 9 -->
<g id="node8" class="node">
<title>9</title>
<ellipse fill="none" stroke="black" cx="192.1" cy="-450" rx="27" ry="18"/>
<text text-anchor="middle" x="192.1" y="-446.3" font-family="Arial" font-size="14.00">9</text>
</g>
<!-- 2&#45;&gt;9 -->
<g id="edge6" class="edge">
<title>2&#45;&gt;9</title>
<path fill="none" stroke="black" d="M162.91,-504.76C167.51,-496.28 173.25,-485.71 178.42,-476.2"/>
<polygon fill="black" stroke="black" points="181.64,-477.61 183.33,-467.15 175.48,-474.27 181.64,-477.61"/>
</g>
<!-- ....... -->
<g id="node9" class="node">
<title>.......</title>
<ellipse fill="none" stroke="black" cx="155.1" cy="-378" rx="27.9" ry="18"/>
<text text-anchor="middle" x="155.1" y="-374.3" font-family="Arial" font-size="14.00">.......</text>
</g>
<!-- 9&#45;&gt;....... -->
<g id="edge7" class="edge">
<title>9&#45;&gt;.......</title>
<path fill="none" stroke="black" d="M183.52,-432.76C179.03,-424.28 173.45,-413.71 168.42,-404.2"/>
<polygon fill="black" stroke="black" points="171.4,-402.35 163.63,-395.15 165.21,-405.62 171.4,-402.35"/>
</g>
<!-- 4 -->
<g id="node10" class="node">
<title>4</title>
<ellipse fill="none" stroke="black" cx="228.1" cy="-378" rx="27" ry="18"/>
<text text-anchor="middle" x="228.1" y="-374.3" font-family="Arial" font-size="14.00">4</text>
</g>
<!-- 9&#45;&gt;4 -->
<g id="edge8" class="edge">
<title>9&#45;&gt;4</title>
<path fill="none" stroke="black" d="M200.45,-432.76C204.81,-424.28 210.24,-413.71 215.14,-404.2"/>
<polygon fill="black" stroke="black" points="218.33,-405.64 219.79,-395.15 212.11,-402.44 218.33,-405.64"/>
</g>
<!-- ...... -->
<g id="node11" class="node">
<title>......</title>
<ellipse fill="none" stroke="black" cx="192.1" cy="-306" rx="27" ry="18"/>
<text text-anchor="middle" x="192.1" y="-302.3" font-family="Arial" font-size="14.00">......</text>
</g>
<!-- 4&#45;&gt;...... -->
<g id="edge9" class="edge">
<title>4&#45;&gt;......</title>
<path fill="none" stroke="black" d="M219.75,-360.76C215.39,-352.28 209.95,-341.71 205.06,-332.2"/>
<polygon fill="black" stroke="black" points="208.09,-330.44 200.4,-323.15 201.86,-333.64 208.09,-330.44"/>
</g>
<!-- 8 -->
<g id="node12" class="node">
<title>8</title>
<ellipse fill="none" stroke="black" cx="264.1" cy="-306" rx="27" ry="18"/>
<text text-anchor="middle" x="264.1" y="-302.3" font-family="Arial" font-size="14.00">8</text>
</g>
<!-- 4&#45;&gt;8 -->
<g id="edge10" class="edge">
<title>4&#45;&gt;8</title>
<path fill="none" stroke="black" d="M236.45,-360.76C240.81,-352.28 246.24,-341.71 251.14,-332.2"/>
<polygon fill="black" stroke="black" points="254.33,-333.64 255.79,-323.15 248.11,-330.44 254.33,-333.64"/>
</g>
<!-- ..... -->
<g id="node13" class="node">
<title>.....</title>
<ellipse fill="none" stroke="black" cx="228.1" cy="-234" rx="27" ry="18"/>
<text text-anchor="middle" x="228.1" y="-230.3" font-family="Arial" font-size="14.00">.....</text>
</g>
<!-- 8&#45;&gt;..... -->
<g id="edge11" class="edge">
<title>8&#45;&gt;.....</title>
<path fill="none" stroke="black" d="M255.75,-288.76C251.39,-280.28 245.95,-269.71 241.06,-260.2"/>
<polygon fill="black" stroke="black" points="244.09,-258.44 236.4,-251.15 237.86,-261.64 244.09,-258.44"/>
</g>
<!-- 5 -->
<g id="node14" class="node">
<title>5</title>
<ellipse fill="none" stroke="black" cx="300.1" cy="-234" rx="27" ry="18"/>
<text text-anchor="middle" x="300.1" y="-230.3" font-family="Arial" font-size="14.00">5</text>
</g>
<!-- 8&#45;&gt;5 -->
<g id="edge12" class="edge">
<title>8&#45;&gt;5</title>
<path fill="none" stroke="black" d="M272.45,-288.76C276.81,-280.28 282.24,-269.71 287.14,-260.2"/>
<polygon fill="black" stroke="black" points="290.33,-261.64 291.79,-251.15 284.11,-258.44 290.33,-261.64"/>
</g>
<!-- .... -->
<g id="node15" class="node">
<title>....</title>
<ellipse fill="none" stroke="black" cx="264.1" cy="-162" rx="27" ry="18"/>
<text text-anchor="middle" x="264.1" y="-158.3" font-family="Arial" font-size="14.00">....</text>
</g>
<!-- 5&#45;&gt;.... -->
<g id="edge13" class="edge">
<title>5&#45;&gt;....</title>
<path fill="none" stroke="black" d="M291.75,-216.76C287.39,-208.28 281.95,-197.71 277.06,-188.2"/>
<polygon fill="black" stroke="black" points="280.09,-186.44 272.4,-179.15 273.86,-189.64 280.09,-186.44"/>
</g>
<!-- 7 -->
<g id="node16" class="node">
<title>7</title>
<ellipse fill="none" stroke="black" cx="336.1" cy="-162" rx="27" ry="18"/>
<text text-anchor="middle" x="336.1" y="-158.3" font-family="Arial" font-size="14.00">7</text>
</g>
<!-- 5&#45;&gt;7 -->
<g id="edge14" class="edge">
<title>5&#45;&gt;7</title>
<path fill="none" stroke="black" d="M308.45,-216.76C312.81,-208.28 318.24,-197.71 323.14,-188.2"/>
<polygon fill="black" stroke="black" points="326.33,-189.64 327.79,-179.15 320.11,-186.44 326.33,-189.64"/>
</g>
<!-- ... -->
<g id="node17" class="node">
<title>...</title>
<ellipse fill="none" stroke="black" cx="300.1" cy="-90" rx="27" ry="18"/>
<text text-anchor="middle" x="300.1" y="-86.3" font-family="Arial" font-size="14.00">...</text>
</g>
<!-- 7&#45;&gt;... -->
<g id="edge15" class="edge">
<title>7&#45;&gt;...</title>
<path fill="none" stroke="black" d="M327.75,-144.76C323.39,-136.28 317.95,-125.71 313.06,-116.2"/>
<polygon fill="black" stroke="black" points="316.09,-114.44 308.4,-107.15 309.86,-117.64 316.09,-114.44"/>
</g>
<!-- 6 -->
<g id="node18" class="node">
<title>6</title>
<ellipse fill="none" stroke="black" cx="372.1" cy="-90" rx="27" ry="18"/>
<text text-anchor="middle" x="372.1" y="-86.3" font-family="Arial" font-size="14.00">6</text>
</g>
<!-- 7&#45;&gt;6 -->
<g id="edge16" class="edge">
<title>7&#45;&gt;6</title>
<path fill="none" stroke="black" d="M344.45,-144.76C348.81,-136.28 354.24,-125.71 359.14,-116.2"/>
<polygon fill="black" stroke="black" points="362.33,-117.64 363.79,-107.15 356.11,-114.44 362.33,-117.64"/>
</g>
<!-- 6&#45;&gt;3 -->
<g id="edge17" class="edge">
<title>6&#45;&gt;3</title>
<path fill="none" stroke="black" d="M372.1,-71.7C372.1,-63.98 372.1,-54.71 372.1,-46.11"/>
<polygon fill="black" stroke="black" points="375.6,-46.1 372.1,-36.1 368.6,-46.1 375.6,-46.1"/>
</g>
</g>
</svg>
