<?xml version="1.0" encoding="UTF-8" standalone="no"?>
<!DOCTYPE svg PUBLIC "-//W3C//DTD SVG 1.1//EN"
 "http://www.w3.org/Graphics/SVG/1.1/DTD/svg11.dtd">
<!-- Generated by graphviz version 2.43.0 (0)
 -->
<!-- Title: BST Pages: 1 -->
<svg width="408pt" height="692pt"
 viewBox="0.00 0.00 408.10 692.00" xmlns="http://www.w3.org/2000/svg" xmlns:xlink="http://www.w3.org/1999/xlink">
<g id="graph0" class="graph" transform="scale(1 1) rotate(0) translate(4 688)">
<title>BST</title>
<polygon fill="white" stroke="transparent" points="-4,4 -4,-688 404.1,-688 404.1,4 -4,4"/>
<!-- 1 -->
<g id="node1" class="node">
<title>1</title>
<ellipse fill="none" stroke="black" cx="75.1" cy="-666" rx="27" ry="18"/>
<text text-anchor="middle" x="75.1" y="-662.3" font-family="Arial" font-size="14.00">1</text>
</g>
<!-- .......... -->
<g id="node2" class="node">
<title>..........</title>
<ellipse fill="none" stroke="black" cx="35.1" cy="-594" rx="35.19" ry="18"/>
<text text-anchor="middle" x="35.1" y="-590.3" font-family="Arial" font-size="14.00">..........</text>
</g>
<!-- 1&#45;&gt;.......... -->
<g id="edge1" class="edge">
<title>1&#45;&gt;..........</title>
<path fill="none" stroke="black" d="M65.82,-648.76C61.04,-640.4 55.11,-630.02 49.73,-620.61"/>
<polygon fill="black" stroke="black" points="52.6,-618.58 44.6,-611.63 46.52,-622.05 52.6,-618.58"/>
</g>
<!-- 10 -->
<g id="node3" class="node">
<title>10</title>
<ellipse fill="none" stroke="black" cx="115.1" cy="-594" rx="27" ry="18"/>
<text text-anchor="middle" x="115.1" y="-590.3" font-family="Arial" font-size="14.00">10</text>
</g>
<!-- 1&#45;&gt;10 -->
<g id="edge2" class="edge">
<title>1&#45;&gt;10</title>
<path fill="none" stroke="black" d="M84.37,-648.76C89.27,-640.19 95.39,-629.49 100.87,-619.9"/>
<polygon fill="black" stroke="black" points="103.95,-621.57 105.87,-611.15 97.87,-618.09 103.95,-621.57"/>
</g>
<!-- ......... -->
<g id="node4" class="node">
<title>.........</title>
<ellipse fill="none" stroke="black" cx="77.1" cy="-522" rx="32.49" ry="18"/>
<text text-anchor="middle" x="77.1" y="-518.3" font-family="Arial" font-size="14.00">.........</text>
</g>
<!-- 10&#45;&gt;......... -->
<g id="edge3" class="edge">
<title>10&#45;&gt;.........</title>
<path fill="none" stroke="black" d="M106.28,-576.76C101.74,-568.4 96.11,-558.02 91,-548.61"/>
<polygon fill="black" stroke="black" points="93.97,-546.75 86.13,-539.63 87.82,-550.09 93.97,-546.75"/>
</g>
<!-- 2 -->
<g id="node5" class="node">
<title>2</title>
<ellipse fill="none" stroke="black" cx="154.1" cy="-522" rx="27" ry="18"/>
<text text-anchor="middle" x="154.1" y="-518.3" font-family="Arial" font-size="14.00">2</text>
</g>
<!-- 10&#45;&gt;2 -->
<g id="edge4" class="edge">
<title>10&#45;&gt;2</title>
<path fill="none" stroke="black" d="M124.14,-576.76C128.92,-568.19 134.88,-557.49 140.22,-547.9"/>
<polygon fill="black" stroke="black" points="143.29,-549.59 145.1,-539.15 137.18,-546.18 143.29,-549.59"/>
</g>
<!-- ........ -->
<g id="node6" class="node">
<title>........</title>
<ellipse fill="none" stroke="black" cx="116.1" cy="-450" rx="30.59" ry="18"/>
<text text-anchor="middle" x="116.1" y="-446.3" font-family="Arial" font-size="14.00">........</text>
</g>
<!-- 2&#45;&gt;........ -->
<g id="edge5" class="edge">
<title>2&#45;&gt;........</title>
<path fill="none" stroke="black" d="M145.28,-504.76C140.74,-496.4 135.11,-486.02 130,-476.61"/>
<polygon fill="black" stroke="black" points="132.97,-474.75 125.13,-467.63 126.82,-478.09 132.97,-474.75"/>
</g>
<!-- 9 -->
<g id="node7" class="node">
<title>9</title>
<ellipse fill="none" stroke="black" cx="192.1" cy="-450" rx="27" ry="18"/>
<text text-anchor="middle" x="192.1" y="-446.3" font-family="Arial" font-size="14.00">9</text>
</g>
<!-- 2&#45;&gt;9 -->
<g id="edge6" class="edge">
<title>2&#45;&gt;9</title>
<path fill="none" stroke="black" d="M162.91,-504.76C167.51,-496.28 173.25,-485.71 178.42,-476.2"/>
<polygon fill="black" stroke="black" points="181.64,-477.61 183.33,-467.15 175.48,-474.27 181.64,-477.61"/>
</g>
<!-- ....... -->
<g id="node8" class="node">
<title>.......</title>
<ellipse fill="none" stroke="black" cx="156.1" cy="-378" rx="27.9" ry="18"/>
<text text-anchor="middle" x="156.1" y="-374.3" font-family="Arial" font-size="14.00">.......</text>
</g>
<!-- 9&#45;&gt;....... -->
<g id="edge7" class="edge">
<title>9&#45;&gt;.......</title>
<path fill="none" stroke="black" d="M183.75,-432.76C179.45,-424.4 174.11,-414.02 169.27,-404.61"/>
<polygon fill="black" stroke="black" points="172.34,-402.93 164.65,-395.63 166.11,-406.13 172.34,-402.93"/>
</g>
<!-- 3 -->
<g id="node9" class="node">
<title>3</title>
<ellipse fill="none" stroke="red" cx="229.1" cy="-378" rx="27" ry="18"/>
<text text-anchor="middle" x="229.1" y="-374.3" font-family="Arial" font-size="14.00">3</text>
</g>
<!-- 9&#45;&gt;3 -->
<g id="edge8" class="edge">
<title>9&#45;&gt;3</title>
<path fill="none" stroke="black" d="M200.68,-432.76C205.16,-424.28 210.75,-413.71 215.78,-404.2"/>
<polygon fill="black" stroke="black" points="218.98,-405.62 220.56,-395.15 212.79,-402.35 218.98,-405.62"/>
</g>
<!-- ...... -->
<g id="node10" class="node">
<title>......</title>
<ellipse fill="none" stroke="black" cx="193.1" cy="-306" rx="27" ry="18"/>
<text text-anchor="middle" x="193.1" y="-302.3" font-family="Arial" font-size="14.00">......</text>
</g>
<!-- 3&#45;&gt;...... -->
<g id="edge9" class="edge">
<title>3&#45;&gt;......</title>
<path fill="none" stroke="black" d="M220.75,-360.76C216.39,-352.28 210.95,-341.71 206.06,-332.2"/>
<polygon fill="black" stroke="black" points="209.09,-330.44 201.4,-323.15 202.86,-333.64 209.09,-330.44"/>
</g>
<!-- 8 -->
<g id="node11" class="node">
<title>8</title>
<ellipse fill="none" stroke="black" cx="265.1" cy="-306" rx="27" ry="18"/>
<text text-anchor="middle" x="265.1" y="-302.3" font-family="Arial" font-size="14.00">8</text>
</g>
<!-- 3&#45;&gt;8 -->
<g id="edge10" class="edge">
<title>3&#45;&gt;8</title>
<path fill="none" stroke="black" d="M237.45,-360.76C241.81,-352.28 247.24,-341.71 252.14,-332.2"/>
<polygon fill="black" stroke="black" points="255.33,-333.64 256.79,-323.15 249.11,-330.44 255.33,-333.64"/>
</g>
<!-- ..... -->
<g id="node12" class="node">
<title>.....</title>
<ellipse fill="none" stroke="black" cx="229.1" cy="-234" rx="27" ry="18"/>
<text text-anchor="middle" x="229.1" y="-230.3" font-family="Arial" font-size="14.00">.....</text>
</g>
<!-- 8&#45;&gt;..... -->
<g id="edge11" class="edge">
<title>8&#45;&gt;.....</title>
<path fill="none" stroke="black" d="M256.75,-288.76C252.39,-280.28 246.95,-269.71 242.06,-260.2"/>
<polygon fill="black" stroke="black" points="245.09,-258.44 237.4,-251.15 238.86,-261.64 245.09,-258.44"/>
</g>
<!-- 4 -->
<g id="node13" class="node">
<title>4</title>
<ellipse fill="none" stroke="black" cx="301.1" cy="-234" rx="27" ry="18"/>
<text text-anchor="middle" x="301.1" y="-230.3" font-family="Arial" font-size="14.00">4</text>
</g>
<!-- 8&#45;&gt;4 -->
<g id="edge12" class="edge">
<title>8&#45;&gt;4</title>
<path fill="none" stroke="black" d="M273.45,-288.76C277.81,-280.28 283.24,-269.71 288.14,-260.2"/>
<polygon fill="black" stroke="black" points="291.33,-261.64 292.79,-251.15 285.11,-258.44 291.33,-261.64"/>
</g>
<!-- .... -->
<g id="node14" class="node">
<title>....</title>
<ellipse fill="none" stroke="black" cx="265.1" cy="-162" rx="27" ry="18"/>
<text text-anchor="middle" x="265.1" y="-158.3" font-family="Arial" font-size="14.00">....</text>
</g>
<!-- 4&#45;&gt;.... -->
<g id="edge13" class="edge">
<title>4&#45;&gt;....</title>
<path fill="none" stroke="black" d="M292.75,-216.76C288.39,-208.28 282.95,-197.71 278.06,-188.2"/>
<polygon fill="black" stroke="black" points="281.09,-186.44 273.4,-179.15 274.86,-189.64 281.09,-186.44"/>
</g>
<!-- 7 -->
<g id="node15" class="node">
<title>7</title>
<ellipse fill="none" stroke="black" cx="337.1" cy="-162" rx="27" ry="18"/>
<text text-anchor="middle" x="337.1" y="-158.3" font-family="Arial" font-size="14.00">7</text>
</g>
<!-- 4&#45;&gt;7 -->
<g id="edge14" class="edge">
<title>4&#45;&gt;7</title>
<path fill="none" stroke="black" d="M309.45,-216.76C313.81,-208.28 319.24,-197.71 324.14,-188.2"/>
<polygon fill="black" stroke="black" points="327.33,-189.64 328.79,-179.15 321.11,-186.44 327.33,-189.64"/>
</g>
<!-- ... -->
<g id="node16" class="node">
<title>...</title>
<ellipse fill="none" stroke="black" cx="301.1" cy="-90" rx="27" ry="18"/>
<text text-anchor="middle" x="301.1" y="-86.3" font-family="Arial" font-size="14.00">...</text>
</g>
<!-- 7&#45;&gt;... -->
<g id="edge15" class="edge">
<title>7&#45;&gt;...</title>
<path fill="none" stroke="black" d="M328.75,-144.76C324.39,-136.28 318.95,-125.71 314.06,-116.2"/>
<polygon fill="black" stroke="black" points="317.09,-114.44 309.4,-107.15 310.86,-117.64 317.09,-114.44"/>
</g>
<!-- 5 -->
<g id="node17" class="node">
<title>5</title>
<ellipse fill="none" stroke="black" cx="373.1" cy="-90" rx="27" ry="18"/>
<text text-anchor="middle" x="373.1" y="-86.3" font-family="Arial" font-size="14.00">5</text>
</g>
<!-- 7&#45;&gt;5 -->
<g id="edge16" class="edge">
<title>7&#45;&gt;5</title>
<path fill="none" stroke="black" d="M345.45,-144.76C349.81,-136.28 355.24,-125.71 360.14,-116.2"/>
<polygon fill="black" stroke="black" points="363.33,-117.64 364.79,-107.15 357.11,-114.44 363.33,-117.64"/>
</g>
<!-- 6 -->
<g id="node18" class="node">
<title>6</title>
<ellipse fill="none" stroke="black" cx="373.1" cy="-18" rx="27" ry="18"/>
<text text-anchor="middle" x="373.1" y="-14.3" font-family="Arial" font-size="14.00">6</text>
</g>
<!-- 5&#45;&gt;6 -->
<g id="edge17" class="edge">
<title>5&#45;&gt;6</title>
<path fill="none" stroke="black" d="M373.1,-71.7C373.1,-63.98 373.1,-54.71 373.1,-46.11"/>
<polygon fill="black" stroke="black" points="376.6,-46.1 373.1,-36.1 369.6,-46.1 376.6,-46.1"/>
</g>
</g>
</svg>
