<?xml version="1.0" encoding="UTF-8" standalone="no"?>
<!DOCTYPE svg PUBLIC "-//W3C//DTD SVG 1.1//EN"
 "http://www.w3.org/Graphics/SVG/1.1/DTD/svg11.dtd">
<!-- Generated by graphviz version 2.43.0 (0)
 -->
<!-- Title: MinMaxHeap Pages: 1 -->
<svg width="406pt" height="620pt"
 viewBox="0.00 0.00 406.10 620.00" xmlns="http://www.w3.org/2000/svg" xmlns:xlink="http://www.w3.org/1999/xlink">
<g id="graph0" class="graph" transform="scale(1 1) rotate(0) translate(4 616)">
<title>MinMaxHeap</title>
<polygon fill="white" stroke="transparent" points="-4,4 -4,-616 402.1,-616 402.1,4 -4,4"/>
<!-- 1 -->
<g id="node1" class="node">
<title>1</title>
<ellipse fill="none" stroke="black" cx="75.1" cy="-594" rx="27" ry="18"/>
<text text-anchor="middle" x="75.1" y="-590.3" font-family="Arial" font-size="14.00">1</text>
</g>
<!-- .......... -->
<g id="node2" class="node">
<title>..........</title>
<ellipse fill="none" stroke="black" cx="35.1" cy="-522" rx="35.19" ry="18"/>
<text text-anchor="middle" x="35.1" y="-518.3" font-family="Arial" font-size="14.00">..........</text>
</g>
<!-- 1&#45;&gt;.......... -->
<g id="edge1" class="edge">
<title>1&#45;&gt;..........</title>
<path fill="none" stroke="black" d="M65.82,-576.76C61.04,-568.4 55.11,-558.02 49.73,-548.61"/>
<polygon fill="black" stroke="black" points="52.6,-546.58 44.6,-539.63 46.52,-550.05 52.6,-546.58"/>
</g>
<!-- 10 -->
<g id="node3" class="node">
<title>10</title>
<ellipse fill="none" stroke="black" cx="115.1" cy="-522" rx="27" ry="18"/>
<text text-anchor="middle" x="115.1" y="-518.3" font-family="Arial" font-size="14.00">10</text>
</g>
<!-- 1&#45;&gt;10 -->
<g id="edge2" class="edge">
<title>1&#45;&gt;10</title>
<path fill="none" stroke="black" d="M84.37,-576.76C89.27,-568.19 95.39,-557.49 100.87,-547.9"/>
<polygon fill="black" stroke="black" points="103.95,-549.57 105.87,-539.15 97.87,-546.09 103.95,-549.57"/>
</g>
<!-- ......... -->
<g id="node4" class="node">
<title>.........</title>
<ellipse fill="none" stroke="black" cx="76.1" cy="-450" rx="32.49" ry="18"/>
<text text-anchor="middle" x="76.1" y="-446.3" font-family="Arial" font-size="14.00">.........</text>
</g>
<!-- 10&#45;&gt;......... -->
<g id="edge3" class="edge">
<title>10&#45;&gt;.........</title>
<path fill="none" stroke="black" d="M106.05,-504.76C101.39,-496.4 95.61,-486.02 90.36,-476.61"/>
<polygon fill="black" stroke="black" points="93.29,-474.67 85.36,-467.63 87.17,-478.07 93.29,-474.67"/>
</g>
<!-- 2 -->
<g id="node5" class="node">
<title>2</title>
<ellipse fill="none" stroke="black" cx="153.1" cy="-450" rx="27" ry="18"/>
<text text-anchor="middle" x="153.1" y="-446.3" font-family="Arial" font-size="14.00">2</text>
</g>
<!-- 10&#45;&gt;2 -->
<g id="edge4" class="edge">
<title>10&#45;&gt;2</title>
<path fill="none" stroke="black" d="M123.91,-504.76C128.51,-496.28 134.25,-485.71 139.42,-476.2"/>
<polygon fill="black" stroke="black" points="142.64,-477.61 144.33,-467.15 136.48,-474.27 142.64,-477.61"/>
</g>
<!-- ........ -->
<g id="node6" class="node">
<title>........</title>
<ellipse fill="none" stroke="black" cx="115.1" cy="-378" rx="30.59" ry="18"/>
<text text-anchor="middle" x="115.1" y="-374.3" font-family="Arial" font-size="14.00">........</text>
</g>
<!-- 2&#45;&gt;........ -->
<g id="edge5" class="edge">
<title>2&#45;&gt;........</title>
<path fill="none" stroke="black" d="M144.28,-432.76C139.74,-424.4 134.11,-414.02 129,-404.61"/>
<polygon fill="black" stroke="black" points="131.97,-402.75 124.13,-395.63 125.82,-406.09 131.97,-402.75"/>
</g>
<!-- 9 -->
<g id="node7" class="node">
<title>9</title>
<ellipse fill="none" stroke="black" cx="191.1" cy="-378" rx="27" ry="18"/>
<text text-anchor="middle" x="191.1" y="-374.3" font-family="Arial" font-size="14.00">9</text>
</g>
<!-- 2&#45;&gt;9 -->
<g id="edge6" class="edge">
<title>2&#45;&gt;9</title>
<path fill="none" stroke="black" d="M161.91,-432.76C166.51,-424.28 172.25,-413.71 177.42,-404.2"/>
<polygon fill="black" stroke="black" points="180.64,-405.61 182.33,-395.15 174.48,-402.27 180.64,-405.61"/>
</g>
<!-- ....... -->
<g id="node8" class="node">
<title>.......</title>
<ellipse fill="none" stroke="black" cx="154.1" cy="-306" rx="27.9" ry="18"/>
<text text-anchor="middle" x="154.1" y="-302.3" font-family="Arial" font-size="14.00">.......</text>
</g>
<!-- 9&#45;&gt;....... -->
<g id="edge7" class="edge">
<title>9&#45;&gt;.......</title>
<path fill="none" stroke="black" d="M182.52,-360.76C178.03,-352.28 172.45,-341.71 167.42,-332.2"/>
<polygon fill="black" stroke="black" points="170.4,-330.35 162.63,-323.15 164.21,-333.62 170.4,-330.35"/>
</g>
<!-- 4 -->
<g id="node9" class="node">
<title>4</title>
<ellipse fill="none" stroke="black" cx="227.1" cy="-306" rx="27" ry="18"/>
<text text-anchor="middle" x="227.1" y="-302.3" font-family="Arial" font-size="14.00">4</text>
</g>
<!-- 9&#45;&gt;4 -->
<g id="edge8" class="edge">
<title>9&#45;&gt;4</title>
<path fill="none" stroke="black" d="M199.45,-360.76C203.81,-352.28 209.24,-341.71 214.14,-332.2"/>
<polygon fill="black" stroke="black" points="217.33,-333.64 218.79,-323.15 211.11,-330.44 217.33,-333.64"/>
</g>
<!-- ...... -->
<g id="node10" class="node">
<title>......</title>
<ellipse fill="none" stroke="black" cx="191.1" cy="-234" rx="27" ry="18"/>
<text text-anchor="middle" x="191.1" y="-230.3" font-family="Arial" font-size="14.00">......</text>
</g>
<!-- 4&#45;&gt;...... -->
<g id="edge9" class="edge">
<title>4&#45;&gt;......</title>
<path fill="none" stroke="black" d="M218.75,-288.76C214.39,-280.28 208.95,-269.71 204.06,-260.2"/>
<polygon fill="black" stroke="black" points="207.09,-258.44 199.4,-251.15 200.86,-261.64 207.09,-258.44"/>
</g>
<!-- 8 -->
<g id="node11" class="node">
<title>8</title>
<ellipse fill="none" stroke="black" cx="263.1" cy="-234" rx="27" ry="18"/>
<text text-anchor="middle" x="263.1" y="-230.3" font-family="Arial" font-size="14.00">8</text>
</g>
<!-- 4&#45;&gt;8 -->
<g id="edge10" class="edge">
<title>4&#45;&gt;8</title>
<path fill="none" stroke="black" d="M235.45,-288.76C239.81,-280.28 245.24,-269.71 250.14,-260.2"/>
<polygon fill="black" stroke="black" points="253.33,-261.64 254.79,-251.15 247.11,-258.44 253.33,-261.64"/>
</g>
<!-- ..... -->
<g id="node12" class="node">
<title>.....</title>
<ellipse fill="none" stroke="black" cx="227.1" cy="-162" rx="27" ry="18"/>
<text text-anchor="middle" x="227.1" y="-158.3" font-family="Arial" font-size="14.00">.....</text>
</g>
<!-- 8&#45;&gt;..... -->
<g id="edge11" class="edge">
<title>8&#45;&gt;.....</title>
<path fill="none" stroke="black" d="M254.75,-216.76C250.39,-208.28 244.95,-197.71 240.06,-188.2"/>
<polygon fill="black" stroke="black" points="243.09,-186.44 235.4,-179.15 236.86,-189.64 243.09,-186.44"/>
</g>
<!-- 5 -->
<g id="node13" class="node">
<title>5</title>
<ellipse fill="none" stroke="black" cx="299.1" cy="-162" rx="27" ry="18"/>
<text text-anchor="middle" x="299.1" y="-158.3" font-family="Arial" font-size="14.00">5</text>
</g>
<!-- 8&#45;&gt;5 -->
<g id="edge12" class="edge">
<title>8&#45;&gt;5</title>
<path fill="none" stroke="black" d="M271.45,-216.76C275.81,-208.28 281.24,-197.71 286.14,-188.2"/>
<polygon fill="black" stroke="black" points="289.33,-189.64 290.79,-179.15 283.11,-186.44 289.33,-189.64"/>
</g>
<!-- .... -->
<g id="node14" class="node">
<title>....</title>
<ellipse fill="none" stroke="black" cx="263.1" cy="-90" rx="27" ry="18"/>
<text text-anchor="middle" x="263.1" y="-86.3" font-family="Arial" font-size="14.00">....</text>
</g>
<!-- 5&#45;&gt;.... -->
<g id="edge13" class="edge">
<title>5&#45;&gt;....</title>
<path fill="none" stroke="black" d="M290.75,-144.76C286.39,-136.28 280.95,-125.71 276.06,-116.2"/>
<polygon fill="black" stroke="black" points="279.09,-114.44 271.4,-107.15 272.86,-117.64 279.09,-114.44"/>
</g>
<!-- 7 -->
<g id="node15" class="node">
<title>7</title>
<ellipse fill="none" stroke="black" cx="335.1" cy="-90" rx="27" ry="18"/>
<text text-anchor="middle" x="335.1" y="-86.3" font-family="Arial" font-size="14.00">7</text>
</g>
<!-- 5&#45;&gt;7 -->
<g id="edge14" class="edge">
<title>5&#45;&gt;7</title>
<path fill="none" stroke="black" d="M307.45,-144.76C311.81,-136.28 317.24,-125.71 322.14,-116.2"/>
<polygon fill="black" stroke="black" points="325.33,-117.64 326.79,-107.15 319.11,-114.44 325.33,-117.64"/>
</g>
<!-- ... -->
<g id="node16" class="node">
<title>...</title>
<ellipse fill="none" stroke="black" cx="299.1" cy="-18" rx="27" ry="18"/>
<text text-anchor="middle" x="299.1" y="-14.3" font-family="Arial" font-size="14.00">...</text>
</g>
<!-- 7&#45;&gt;... -->
<g id="edge15" class="edge">
<title>7&#45;&gt;...</title>
<path fill="none" stroke="black" d="M326.75,-72.76C322.39,-64.28 316.95,-53.71 312.06,-44.2"/>
<polygon fill="black" stroke="black" points="315.09,-42.44 307.4,-35.15 308.86,-45.64 315.09,-42.44"/>
</g>
<!-- 6 -->
<g id="node17" class="node">
<title>6</title>
<ellipse fill="none" stroke="black" cx="371.1" cy="-18" rx="27" ry="18"/>
<text text-anchor="middle" x="371.1" y="-14.3" font-family="Arial" font-size="14.00">6</text>
</g>
<!-- 7&#45;&gt;6 -->
<g id="edge16" class="edge">
<title>7&#45;&gt;6</title>
<path fill="none" stroke="black" d="M343.45,-72.76C347.81,-64.28 353.24,-53.71 358.14,-44.2"/>
<polygon fill="black" stroke="black" points="361.33,-45.64 362.79,-35.15 355.11,-42.44 361.33,-45.64"/>
</g>
</g>
</svg>
